<?xml version="1.0" standalone="no"?>
<!DOCTYPE svg PUBLIC "-//W3C//DTD SVG 20010904//EN"
 "http://www.w3.org/TR/2001/REC-SVG-20010904/DTD/svg10.dtd">
<svg version="1.0" xmlns="http://www.w3.org/2000/svg"
 width="540.000000pt" height="540.000000pt" viewBox="0 0 540.000000 540.000000"
 preserveAspectRatio="xMidYMid meet">
<metadata>
Created by potrace 1.11, written by Peter Selinger 2001-2013
</metadata>
<g transform="translate(0.000000,540.000000) scale(0.100000,-0.100000)"
fill="#000000" stroke="none">
<path d="M0 2700 l0 -2700 2700 0 2700 0 0 2700 0 2700 -2700 0 -2700 0 0
-2700z m2481 880 c118 -203 216 -370 219 -370 3 1 100 166 216 368 l211 367
729 0 728 0 358 -620 c197 -341 358 -624 358 -630 -1 -5 -162 -289 -359 -630
l-358 -620 -728 0 -727 0 -211 367 c-117 202 -215 368 -218 368 -3 0 -102
-166 -219 -370 l-213 -370 -726 0 -726 1 -355 617 c-195 339 -355 626 -355
637 0 11 160 298 355 638 l355 617 727 0 726 0 213 -370z"/>
<path d="M1057 3348 c-79 -135 -352 -609 -365 -633 -9 -18 20 -73 203 -390
l213 -370 433 -2 434 -3 210 366 c116 202 211 370 213 375 2 4 -93 175 -210
378 l-213 371 -432 0 -432 0 -54 -92z"/>
<path d="M3218 3083 c-114 -197 -210 -366 -213 -375 -5 -12 61 -136 206 -388
l214 -370 431 0 431 0 214 372 c118 205 213 374 212 378 -1 3 -97 171 -213
373 l-212 367 -432 0 -432 0 -206 -357z"/>
<path d="M2553 2938 l-140 -242 139 -240 c76 -133 142 -242 146 -243 7 -3 282
468 282 483 0 12 -274 484 -281 484 -4 0 -70 -109 -146 -242z"/>
</g>
</svg>
